<mxfile host="app.diagrams.net" modified="2023-05-20T22:36:15.275Z" agent="Mozilla/5.0 (Windows NT 10.0; Win64; x64) AppleWebKit/537.36 (KHTML, like Gecko) Chrome/113.0.0.0 Safari/537.36" version="21.3.2" etag="q0dnsLCfvIzcWMN9viGn" type="github">
  <diagram name="Page-1" id="clae99Rt2ewEs8dBL_Y6">
    <mxGraphModel>
      <root>
        <mxCell id="0" />
        <mxCell id="1" parent="0" />
      </root>
    </mxGraphModel>
  </diagram>
</mxfile>
